<?xml version="1.0" encoding="utf-8"?>
<!-- Generator: Adobe Illustrator 16.0.0, SVG Export Plug-In . SVG Version: 6.00 Build 0)  -->
<!DOCTYPE svg PUBLIC "-//W3C//DTD SVG 1.1//EN" "http://www.w3.org/Graphics/SVG/1.1/DTD/svg11.dtd">
<svg version="1.1" id="Layer_1" xmlns="http://www.w3.org/2000/svg" xmlns:xlink="http://www.w3.org/1999/xlink" x="0px" y="0px"
	 width="100px" height="100.084px" viewBox="0 0 100 100.084" enable-background="new 0 0 100 100.084" xml:space="preserve">
<g>
	<path fill="#FFFFFF" d="M50.165,5.004c24.835,0,45.039,20.204,45.039,45.037c0,24.835-20.204,45.04-45.039,45.04
		c-24.832,0-45.037-20.205-45.037-45.04C5.129,25.208,25.333,5.004,50.165,5.004 M50.165,0C22.528,0,0.125,22.403,0.125,50.041
		c0,27.64,22.404,50.043,50.041,50.043c27.64,0,50.044-22.403,50.044-50.043C100.209,22.403,77.805,0,50.165,0L50.165,0z"/>
	<path fill="#FFFFFF" d="M31.026,50.041c0,3.87-3.137,7.007-7.007,7.007c-3.868,0-7.004-3.137-7.004-7.007
		c0-3.867,3.136-7.004,7.004-7.004C27.889,43.037,31.026,46.173,31.026,50.041z"/>
	<path fill="#FFFFFF" d="M69.308,50.041c0,3.87,3.137,7.007,7.006,7.007c3.868,0,7.005-3.137,7.005-7.007
		c0-3.867-3.137-7.004-7.005-7.004C72.444,43.037,69.308,46.173,69.308,50.041z"/>
	<path fill="#FFFFFF" d="M43.161,50.041c0,3.87,3.137,7.007,7.004,7.007c3.869,0,7.008-3.137,7.008-7.007
		c0-3.867-3.139-7.004-7.008-7.004C46.298,43.037,43.161,46.173,43.161,50.041z"/>
</g>
</svg>
